# xmcd CD database file
# Copyright (C) 1995-1998 Ti Kan
#
# Track frame offsets:
#	150
#	74353
#	140860
#	213218
#
# Disc length: 4316 seconds
#
# Revision: 34492908
# Submitted via:  CDWizzard Release:4.35
#
DISCID=3d10da04
DTITLE=The Philadelphia Orchestra and the Westminster Choir / Beethoven - 
DTITLE=Symphony No. 9 in D minor
TTITLE0=Symphony No. 9 in D minor, Op. 125 - I Allegro ma non troppo, un poc
TTITLE0=o maestoso
TTITLE1=Symphony No. 9 in D minor, Op. 125 - Molto vivace - Presto
TTITLE2=Symphony No. 9 in D minor, Op. 125 - III Adagio molto e Adagio molto
TTITLE2= e cantabile -- Andante moderato
TTITLE3=Symphony No. 9 in D minor, Op. 125 - Presto
EXTD=Cheryl Studer, soprano\nDelores Ziegler, mezzo-soprano\nPeter Seiffert,
EXTD= tenor\nJames Morris, bass\nThe Westminster Choir\nThe Philadelphia Orc
EXTD=hestra\nRiccardo Muti, conductor\nYEAR: 2000  ID3G:  32
EXTT0=
EXTT1=
EXTT2=
EXTT3=
PLAYORDER=
